<svg width="175" height="45" viewBox="0 0 175 45" fill="none" xmlns="http://www.w3.org/2000/svg">
<path d="M72.828 19.076C72.828 20.052 72.604 20.948 72.156 21.764C71.708 22.564 71.02 23.212 70.092 23.708C69.164 24.204 68.012 24.452 66.636 24.452H64.092V30.5H59.988V13.652H66.636C67.98 13.652 69.116 13.884 70.044 14.348C70.972 14.812 71.668 15.452 72.132 16.268C72.596 17.084 72.828 18.02 72.828 19.076ZM66.324 21.188C67.108 21.188 67.692 21.004 68.076 20.636C68.46 20.268 68.652 19.748 68.652 19.076C68.652 18.404 68.46 17.884 68.076 17.516C67.692 17.148 67.108 16.964 66.324 16.964H64.092V21.188H66.324ZM88.1886 17.108V30.5H84.0846V28.676C83.6686 29.268 83.1006 29.748 82.3806 30.116C81.6766 30.468 80.8926 30.644 80.0286 30.644C79.0046 30.644 78.1006 30.42 77.3166 29.972C76.5326 29.508 75.9246 28.844 75.4926 27.98C75.0606 27.116 74.8446 26.1 74.8446 24.932V17.108H78.9246V24.38C78.9246 25.276 79.1566 25.972 79.6206 26.468C80.0846 26.964 80.7086 27.212 81.4926 27.212C82.2926 27.212 82.9246 26.964 83.3886 26.468C83.8526 25.972 84.0846 25.276 84.0846 24.38V17.108H88.1886ZM95.2404 12.74V30.5H91.1364V12.74H95.2404ZM102.319 12.74V30.5H98.2146V12.74H102.319ZM117.917 23.588C117.917 23.972 117.893 24.372 117.845 24.788H108.557C108.621 25.62 108.885 26.26 109.349 26.708C109.829 27.14 110.413 27.356 111.101 27.356C112.125 27.356 112.837 26.924 113.237 26.06H117.605C117.381 26.94 116.973 27.732 116.381 28.436C115.805 29.14 115.077 29.692 114.197 30.092C113.317 30.492 112.333 30.692 111.245 30.692C109.933 30.692 108.765 30.412 107.741 29.852C106.717 29.292 105.917 28.492 105.341 27.452C104.765 26.412 104.477 25.196 104.477 23.804C104.477 22.412 104.757 21.196 105.317 20.156C105.893 19.116 106.693 18.316 107.717 17.756C108.741 17.196 109.917 16.916 111.245 16.916C112.541 16.916 113.693 17.188 114.701 17.732C115.709 18.276 116.493 19.052 117.053 20.06C117.629 21.068 117.917 22.244 117.917 23.588ZM113.717 22.508C113.717 21.804 113.477 21.244 112.997 20.828C112.517 20.412 111.917 20.204 111.197 20.204C110.509 20.204 109.925 20.404 109.445 20.804C108.981 21.204 108.693 21.772 108.581 22.508H113.717ZM130.282 21.86C131.258 22.068 132.042 22.556 132.634 23.324C133.226 24.076 133.522 24.94 133.522 25.916C133.522 27.324 133.026 28.444 132.034 29.276C131.058 30.092 129.69 30.5 127.93 30.5H120.082V13.652H127.666C129.378 13.652 130.714 14.044 131.674 14.828C132.65 15.612 133.138 16.676 133.138 18.02C133.138 19.012 132.874 19.836 132.346 20.492C131.834 21.148 131.146 21.604 130.282 21.86ZM124.186 20.468H126.874C127.546 20.468 128.058 20.324 128.41 20.036C128.778 19.732 128.962 19.292 128.962 18.716C128.962 18.14 128.778 17.7 128.41 17.396C128.058 17.092 127.546 16.94 126.874 16.94H124.186V20.468ZM127.21 27.188C127.898 27.188 128.426 27.036 128.794 26.732C129.178 26.412 129.37 25.956 129.37 25.364C129.37 24.772 129.17 24.308 128.77 23.972C128.386 23.636 127.85 23.468 127.162 23.468H124.186V27.188H127.21ZM149.582 17.108L141.182 36.86H136.766L139.838 30.044L134.39 17.108H138.974L142.07 25.484L145.142 17.108H149.582ZM158.53 27.02V30.5H156.442C154.954 30.5 153.794 30.14 152.962 29.42C152.13 28.684 151.714 27.492 151.714 25.844V20.516H150.082V17.108H151.714V13.844H155.818V17.108H158.506V20.516H155.818V25.892C155.818 26.292 155.914 26.58 156.106 26.756C156.298 26.932 156.618 27.02 157.066 27.02H158.53ZM173.44 23.588C173.44 23.972 173.416 24.372 173.368 24.788H164.08C164.144 25.62 164.408 26.26 164.872 26.708C165.352 27.14 165.936 27.356 166.624 27.356C167.648 27.356 168.36 26.924 168.76 26.06H173.128C172.904 26.94 172.496 27.732 171.904 28.436C171.328 29.14 170.6 29.692 169.72 30.092C168.84 30.492 167.856 30.692 166.768 30.692C165.456 30.692 164.288 30.412 163.264 29.852C162.24 29.292 161.44 28.492 160.864 27.452C160.288 26.412 160 25.196 160 23.804C160 22.412 160.28 21.196 160.84 20.156C161.416 19.116 162.216 18.316 163.24 17.756C164.264 17.196 165.44 16.916 166.768 16.916C168.064 16.916 169.216 17.188 170.224 17.732C171.232 18.276 172.016 19.052 172.576 20.06C173.152 21.068 173.44 22.244 173.44 23.588ZM169.24 22.508C169.24 21.804 169 21.244 168.52 20.828C168.04 20.412 167.44 20.204 166.72 20.204C166.032 20.204 165.448 20.404 164.968 20.804C164.504 21.204 164.216 21.772 164.104 22.508H169.24Z" fill="#FAF5EA"/>
<mask id="mask0_45_10" style="mask-type:luminance" maskUnits="userSpaceOnUse" x="0" y="0" width="48" height="45">
<path d="M0 0L0 45H48V0H0Z" fill="white"/>
</mask>
<g mask="url(#mask0_45_10)">
<path d="M1.60001 8.20001L1.60002 37C1.60002 39.2091 3.39088 41 5.60002 41H42.4C44.6091 41 46.4 39.2091 46.4 37V8.20001C46.4 5.99087 44.6091 4.20001 42.4 4.20001H5.60001C3.39088 4.20001 1.60001 5.99087 1.60001 8.20001Z" fill="#FAF5EA"/>
<path d="M24 41V4" stroke="#0F1821" stroke-width="2"/>
<path d="M31 22.2C31 18.5549 28.0451 15.6 24.4 15.6C20.7549 15.6 17.8 18.5549 17.8 22.2C17.8 25.8451 20.7549 28.8 24.4 28.8C28.0451 28.8 31 25.8451 31 22.2Z" fill="#FAF5EA" stroke="#0F1821" stroke-width="2"/>
<path d="M1.59375 17.2H3.2C4.85685 17.2 6.2 18.5431 6.2 20.2V25C6.2 26.6569 4.85685 28 3.2 28H1.59766" stroke="#0F1821" stroke-width="2"/>
<path d="M46.3756 28H44.8C43.1431 28 41.8 26.6569 41.8 25V20.2C41.8 18.5431 43.1431 17.2 44.8 17.2H46.3756" stroke="#0F1821" stroke-width="2"/>
</g>
</svg>
