<svg width="387" height="258" viewBox="0 0 387 258" fill="none" xmlns="http://www.w3.org/2000/svg">
<path d="M314.734 43.3853H71.3938V206.163H314.734V43.3853Z" fill="#EBEBEB"/>
<path d="M312.964 45.3718H73.1636V204.176H312.964V45.3718Z" fill="#263238"/>
<path d="M346.427 218.366H39.701V229.537H346.427V218.366Z" fill="#DBDBDB"/>
<path d="M39.701 218.366L71.3989 206.163H314.734L346.432 218.366H39.701Z" fill="#EBEBEB"/>
<path d="M74.2266 214.037L94.6809 206.163H291.452L311.907 214.037H74.2266Z" fill="#263238"/>
<path d="M299.419 57.4359H86.719V192.112H299.419V57.4359Z" fill="white"/>
<path d="M299.419 57.4359H86.5384V62.6166H299.419V57.4359Z" fill="#455A64"/>
<path d="M90.656 60.0262C90.656 60.2804 90.5807 60.5288 90.4395 60.7401C90.2983 60.9513 90.0977 61.116 89.8629 61.2133C89.6281 61.3105 89.3698 61.336 89.1205 61.2864C88.8713 61.2368 88.6424 61.1144 88.4627 60.9348C88.283 60.7551 88.1606 60.5261 88.1111 60.2769C88.0615 60.0277 88.0869 59.7693 88.1842 59.5346C88.2814 59.2998 88.4461 59.0991 88.6574 58.9579C88.8687 58.8168 89.1171 58.7414 89.3712 58.7414C89.712 58.7414 90.0388 58.8768 90.2797 59.1177C90.5207 59.3587 90.656 59.6855 90.656 60.0262Z" fill="#C7C7C7"/>
<path d="M95.9038 60.0262C95.9038 60.2804 95.8284 60.5288 95.6873 60.7401C95.5461 60.9514 95.3454 61.116 95.1106 61.2133C94.8759 61.3105 94.6175 61.336 94.3683 61.2864C94.1191 61.2368 93.8901 61.1145 93.7104 60.9348C93.5307 60.7551 93.4084 60.5261 93.3588 60.2769C93.3092 60.0277 93.3347 59.7693 93.4319 59.5346C93.5292 59.2998 93.6938 59.0991 93.9051 58.9579C94.1164 58.8168 94.3648 58.7414 94.6189 58.7414C94.7879 58.7407 94.9553 58.7735 95.1114 58.8378C95.2676 58.9021 95.4095 58.9968 95.529 59.1162C95.6484 59.2356 95.7431 59.3776 95.8074 59.5338C95.8717 59.6899 95.9045 59.8573 95.9038 60.0262Z" fill="white"/>
<path d="M101.136 60.0262C101.136 60.2804 101.061 60.5288 100.919 60.7401C100.778 60.9514 100.578 61.116 100.343 61.2133C100.108 61.3105 99.8498 61.336 99.6005 61.2864C99.3513 61.2368 99.1224 61.1145 98.9427 60.9348C98.763 60.7551 98.6406 60.5261 98.591 60.2769C98.5415 60.0277 98.5669 59.7693 98.6641 59.5346C98.7614 59.2998 98.9261 59.0991 99.1374 58.9579C99.3487 58.8168 99.5971 58.7414 99.8512 58.7414C100.02 58.7407 100.187 58.7735 100.344 58.8378C100.5 58.9021 100.642 58.9968 100.761 59.1162C100.881 59.2356 100.975 59.3776 101.04 59.5338C101.104 59.6899 101.137 59.8573 101.136 60.0262Z" fill="#FF6C27"/>
<path d="M299.419 62.6166H295.642V192.107H299.419V62.6166Z" fill="#DBDBDB"/>
<path d="M297.526 107.509C297.267 107.509 297.019 107.406 296.836 107.223C296.653 107.04 296.55 106.792 296.55 106.533V64.3504C296.55 64.0917 296.653 63.8437 296.836 63.6608C297.019 63.4779 297.267 63.3751 297.526 63.3751C297.784 63.3751 298.032 63.4779 298.215 63.6608C298.398 63.8437 298.501 64.0917 298.501 64.3504V106.533C298.501 106.792 298.398 107.04 298.215 107.223C298.032 107.406 297.784 107.509 297.526 107.509Z" fill="#A6A6A6"/>
<path d="M269.651 96.2031H117.349V119.289H269.651V96.2031Z" fill="white"/>
<path d="M269.909 119.542H117.091V95.9451H269.909V119.542ZM117.607 119.026H269.393V96.4611H117.607V119.026Z" fill="#DBDBDB"/>
<path d="M130.796 102.457C131.092 103.313 131.294 104.199 131.399 105.099C131.623 106.855 131.623 108.632 131.399 110.388C131.292 111.288 131.088 112.174 130.79 113.03C130.491 112.174 130.286 111.288 130.182 110.388C129.961 108.632 129.961 106.855 130.182 105.099C130.293 104.199 130.498 103.314 130.796 102.457Z" fill="#37474F"/>
<path d="M136.079 107.741C135.225 108.045 134.339 108.253 133.438 108.36C132.561 108.472 131.679 108.527 130.796 108.525C129.912 108.529 129.03 108.474 128.154 108.36C127.252 108.256 126.364 108.052 125.507 107.751C126.365 107.456 127.252 107.252 128.154 107.142C129.03 107.031 129.912 106.975 130.796 106.977C131.679 106.98 132.561 107.037 133.438 107.147C134.337 107.249 135.223 107.447 136.079 107.741Z" fill="#37474F"/>
<path d="M134.531 104.005C134.136 104.82 133.653 105.59 133.092 106.301C132.553 107.001 131.969 107.665 131.343 108.288C130.718 108.914 130.055 109.5 129.356 110.042C128.643 110.603 127.871 111.086 127.055 111.482C127.451 110.665 127.933 109.894 128.494 109.18C129.036 108.482 129.622 107.818 130.249 107.194C130.874 106.57 131.538 105.986 132.235 105.445C132.947 104.885 133.717 104.402 134.531 104.005Z" fill="#37474F"/>
<path d="M134.531 111.482C133.717 111.085 132.947 110.602 132.235 110.042C131.536 109.5 130.873 108.914 130.249 108.288C129.617 107.664 129.027 106.998 128.484 106.296C127.923 105.583 127.44 104.811 127.044 103.995C127.862 104.389 128.634 104.872 129.346 105.434C130.746 106.516 132.001 107.774 133.082 109.175C133.647 109.89 134.133 110.663 134.531 111.482Z" fill="#37474F"/>
<path d="M151.405 102.457C151.701 103.313 151.903 104.199 152.008 105.099C152.119 105.975 152.176 106.858 152.179 107.741C152.18 108.626 152.125 109.51 152.014 110.388C151.904 111.287 151.7 112.173 151.405 113.03C151.105 112.174 150.901 111.288 150.796 110.388C150.682 109.51 150.627 108.626 150.631 107.741C150.629 106.858 150.684 105.975 150.796 105.099C150.903 104.199 151.107 103.313 151.405 102.457Z" fill="#37474F"/>
<path d="M156.689 107.741C155.833 108.041 154.947 108.245 154.047 108.35C153.17 108.461 152.288 108.516 151.405 108.515C150.52 108.519 149.635 108.464 148.758 108.35C147.857 108.245 146.971 108.041 146.116 107.741C146.973 107.446 147.858 107.242 148.758 107.132C149.636 107.02 150.52 106.965 151.405 106.967C152.288 106.97 153.17 107.027 154.047 107.137C154.947 107.242 155.832 107.445 156.689 107.741Z" fill="#37474F"/>
<path d="M155.141 104.005C154.745 104.82 154.262 105.59 153.701 106.301C153.162 107.001 152.578 107.665 151.952 108.288C151.328 108.914 150.664 109.5 149.965 110.042C149.252 110.603 148.48 111.086 147.664 111.482C148.06 110.665 148.542 109.894 149.103 109.18C149.645 108.482 150.231 107.818 150.858 107.194C151.481 106.568 152.144 105.983 152.844 105.445C153.556 104.884 154.326 104.401 155.141 104.005Z" fill="#37474F"/>
<path d="M155.141 111.482C154.326 111.086 153.556 110.603 152.844 110.042C152.143 109.503 151.479 108.917 150.858 108.288C150.237 107.663 149.658 106.997 149.124 106.296C148.563 105.583 148.08 104.811 147.684 103.995C148.502 104.389 149.274 104.872 149.986 105.434C151.386 106.516 152.641 107.774 153.722 109.175C154.276 109.891 154.752 110.664 155.141 111.482Z" fill="#37474F"/>
<path d="M172.009 102.457C172.309 103.312 172.513 104.198 172.617 105.099C172.729 105.975 172.784 106.858 172.783 107.741C172.787 108.626 172.732 109.51 172.617 110.388C172.513 111.288 172.308 112.174 172.009 113.03C171.713 112.173 171.51 111.288 171.405 110.388C171.292 109.51 171.235 108.626 171.235 107.741C171.237 106.858 171.294 105.975 171.405 105.099C171.51 104.199 171.712 103.313 172.009 102.457Z" fill="#37474F"/>
<path d="M177.298 107.741C176.442 108.041 175.556 108.245 174.656 108.35C173.778 108.461 172.894 108.516 172.009 108.515C171.125 108.519 170.243 108.464 169.367 108.35C168.466 108.245 167.58 108.041 166.725 107.741C167.581 107.445 168.467 107.241 169.367 107.132C170.243 107.021 171.125 106.965 172.009 106.967C172.894 106.97 173.778 107.026 174.656 107.137C175.555 107.243 176.441 107.445 177.298 107.741Z" fill="#37474F"/>
<path d="M175.75 104.005C175.354 104.82 174.871 105.59 174.31 106.301C173.771 107.001 173.187 107.665 172.561 108.288C171.937 108.914 171.273 109.5 170.574 110.042C169.861 110.603 169.089 111.086 168.273 111.482C168.667 110.664 169.15 109.893 169.712 109.18C170.254 108.483 170.838 107.819 171.462 107.194C172.088 106.569 172.753 105.985 173.453 105.445C174.165 104.884 174.935 104.401 175.75 104.005Z" fill="#37474F"/>
<path d="M175.75 111.482C174.935 111.086 174.165 110.603 173.453 110.042C172.752 109.502 172.086 108.916 171.462 108.288C170.837 107.662 170.252 106.997 169.712 106.296C169.15 105.584 168.667 104.812 168.273 103.995C169.09 104.389 169.862 104.872 170.574 105.434C171.974 106.516 173.23 107.774 174.31 109.175C174.872 109.89 175.354 110.663 175.75 111.482Z" fill="#37474F"/>
<path d="M192.618 102.457C192.916 103.313 193.12 104.199 193.226 105.099C193.447 106.855 193.447 108.632 193.226 110.388C193.122 111.288 192.917 112.174 192.618 113.03C192.32 112.174 192.116 111.288 192.009 110.388C191.897 109.51 191.842 108.626 191.844 107.741C191.846 106.858 191.903 105.975 192.014 105.099C192.119 104.199 192.321 103.313 192.618 102.457Z" fill="#37474F"/>
<path d="M197.907 107.741C197.051 108.041 196.165 108.245 195.265 108.35C194.387 108.461 193.503 108.516 192.618 108.515C191.734 108.519 190.852 108.464 189.976 108.35C189.075 108.245 188.189 108.041 187.334 107.741C188.19 107.445 189.076 107.241 189.976 107.132C190.852 107.021 191.734 106.965 192.618 106.967C193.503 106.97 194.387 107.026 195.265 107.137C196.164 107.243 197.05 107.445 197.907 107.741Z" fill="#37474F"/>
<path d="M196.359 104.005C195.963 104.82 195.48 105.59 194.919 106.301C194.378 107.001 193.792 107.665 193.165 108.288C192.543 108.917 191.879 109.503 191.178 110.042C190.467 110.603 189.697 111.086 188.882 111.482C189.274 110.663 189.757 109.891 190.321 109.18C190.861 108.482 191.446 107.818 192.071 107.194C192.696 106.57 193.36 105.986 194.057 105.445C194.771 104.885 195.543 104.402 196.359 104.005Z" fill="#37474F"/>
<path d="M196.359 111.482C195.543 111.085 194.771 110.602 194.057 110.042C193.358 109.5 192.695 108.914 192.071 108.288C191.445 107.667 190.86 107.005 190.321 106.306C189.757 105.596 189.274 104.824 188.882 104.005C189.698 104.399 190.468 104.882 191.178 105.445C191.879 105.982 192.543 106.566 193.165 107.194C193.791 107.82 194.377 108.485 194.919 109.186C195.48 109.897 195.963 110.667 196.359 111.482Z" fill="#37474F"/>
<path d="M213.227 102.457C213.522 103.314 213.726 104.199 213.836 105.099C214.056 106.855 214.056 108.632 213.836 110.388C213.731 111.288 213.526 112.174 213.227 113.03C212.929 112.174 212.725 111.288 212.618 110.388C212.394 108.632 212.394 106.855 212.618 105.099C212.724 104.199 212.929 103.313 213.227 102.457Z" fill="#37474F"/>
<path d="M218.516 107.741C217.659 108.041 216.771 108.245 215.869 108.35C214.992 108.461 214.11 108.517 213.227 108.515C212.343 108.519 211.461 108.464 210.585 108.35C209.686 108.246 208.801 108.041 207.948 107.741C208.805 107.445 209.69 107.241 210.59 107.132C211.466 107.02 212.349 106.965 213.232 106.967C214.115 106.969 214.997 107.026 215.874 107.137C216.774 107.242 217.659 107.445 218.516 107.741Z" fill="#37474F"/>
<path d="M216.968 104.005C216.572 104.821 216.087 105.591 215.523 106.301C214.439 107.7 213.184 108.957 211.787 110.042C211.076 110.603 210.306 111.086 209.491 111.482C209.883 110.663 210.366 109.891 210.93 109.18C211.471 108.482 212.055 107.818 212.68 107.194C213.305 106.57 213.969 105.986 214.666 105.445C215.38 104.884 216.151 104.401 216.968 104.005Z" fill="#37474F"/>
<path d="M216.968 111.482C216.151 111.086 215.38 110.603 214.666 110.042C213.967 109.5 213.304 108.914 212.68 108.288C212.054 107.667 211.469 107.005 210.93 106.306C210.366 105.596 209.883 104.824 209.491 104.005C210.307 104.399 211.077 104.882 211.787 105.445C212.488 105.982 213.152 106.566 213.774 107.194C214.4 107.819 214.984 108.484 215.523 109.186C216.087 109.896 216.572 110.666 216.968 111.482Z" fill="#37474F"/>
<path d="M233.836 102.457C234.132 103.313 234.334 104.199 234.439 105.099C234.663 106.855 234.663 108.632 234.439 110.388C234.332 111.288 234.128 112.174 233.831 113.03C233.531 112.174 233.327 111.288 233.222 110.388C233.001 108.632 233.001 106.855 233.222 105.099C233.333 104.199 233.538 103.314 233.836 102.457Z" fill="#37474F"/>
<path d="M239.12 107.741C238.264 108.042 237.378 108.246 236.478 108.35C235.601 108.461 234.719 108.516 233.836 108.515C232.952 108.519 232.07 108.464 231.194 108.35C230.292 108.245 229.404 108.041 228.547 107.741C229.405 107.445 230.292 107.241 231.194 107.132C232.07 107.02 232.952 106.965 233.836 106.967C234.719 106.97 235.601 107.026 236.478 107.137C237.378 107.242 238.263 107.444 239.12 107.741Z" fill="#37474F"/>
<path d="M237.572 104.005C237.179 104.822 236.696 105.592 236.132 106.301C235.594 107.002 235.01 107.666 234.383 108.288C233.759 108.914 233.095 109.5 232.396 110.042C231.684 110.602 230.914 111.085 230.1 111.482C230.492 110.664 230.973 109.893 231.534 109.18C232.62 107.783 233.877 106.528 235.275 105.445C235.988 104.885 236.757 104.402 237.572 104.005Z" fill="#37474F"/>
<path d="M237.572 111.482C236.757 111.085 235.988 110.602 235.275 110.042C233.88 108.955 232.624 107.7 231.534 106.306C230.973 105.594 230.492 104.822 230.1 104.005C230.915 104.4 231.685 104.883 232.396 105.445C233.095 105.985 233.759 106.569 234.383 107.194C235.009 107.819 235.593 108.484 236.132 109.186C236.696 109.895 237.179 110.665 237.572 111.482Z" fill="#37474F"/>
<path d="M172.458 150.419C172.458 150.419 168.67 180.739 162.447 187.571C154.975 195.755 149.547 194.558 146.534 198.779C143.52 194.553 138.097 195.755 130.615 187.566C124.392 180.739 120.61 150.414 120.61 150.414C137.008 142.457 146.544 133.536 146.544 133.536C146.828 133.814 156.312 142.586 172.458 150.419Z" fill="#EBEBEB"/>
<path d="M146.544 133.541V198.774C143.531 194.547 138.107 195.75 130.625 187.561C124.402 180.734 120.62 150.409 120.62 150.409C137.008 142.457 146.544 133.536 146.544 133.536V133.541Z" fill="#DBDBDB"/>
<path d="M168.438 152.865C168.438 152.865 165.239 178.474 159.981 184.243C153.66 191.168 149.078 190.151 146.529 193.717C143.98 190.151 139.397 191.168 133.082 184.243C127.824 178.474 124.63 152.865 124.63 152.865C138.484 146.157 146.529 138.598 146.529 138.598C146.529 138.598 154.583 146.136 168.438 152.865Z" fill="#DBDBDB"/>
<path d="M124.635 152.865C124.635 152.865 127.834 178.474 133.092 184.243C139.403 191.163 143.964 190.151 146.544 193.706V138.608C146.291 138.835 138.288 146.24 124.635 152.865Z" fill="#C7C7C7"/>
<path d="M153.714 173.338C157.68 169.373 157.68 162.943 153.714 158.977C149.748 155.012 143.319 155.012 139.353 158.977C135.387 162.943 135.387 169.373 139.353 173.338C143.319 177.304 149.748 177.304 153.714 173.338Z" fill="#FF6C27"/>
<path d="M145.378 172.757L140.853 168.051L142.53 166.436L145.022 169.031L150.399 160.786L152.349 162.055L145.378 172.757Z" fill="white"/>
<path d="M241.488 170.977L227.427 182.329C224.728 184.486 222.401 186.426 221.292 187.545C221.005 187.781 220.774 188.077 220.616 188.412C220.616 188.412 220.616 188.412 220.616 188.443C220.714 189.676 237.329 211.746 238.16 212.319C238.991 212.891 240.704 210.549 240.74 209.181C240.776 207.814 238.196 196.513 238.196 196.513L252.128 185.027L241.488 170.977Z" fill="#C95F50"/>
<path d="M230.296 180.012L227.412 182.339C224.713 184.496 222.386 186.436 221.276 187.556C221.017 187.817 220.791 188.108 220.6 188.423C220.6 188.423 220.6 188.423 220.6 188.453C220.698 189.687 237.314 211.756 238.144 212.329C238.975 212.902 240.688 210.559 240.724 209.192C240.76 207.824 238.18 196.524 238.18 196.524L241.142 194.197L230.296 180.012Z" fill="#EBEBEB"/>
<path d="M238.129 212.344C237.288 211.772 220.678 189.707 220.585 188.464C220.538 187.994 223.614 185.368 227.417 182.344L227.541 182.246L238.392 196.364L238.15 196.539C238.15 196.539 240.73 207.829 240.693 209.207C240.657 210.585 238.965 212.922 238.129 212.344Z" fill="#FF6C27"/>
<path d="M238.795 211.452C236.086 207.664 224.806 192.643 221.839 189.104C221.798 189.104 221.839 189.073 221.839 189.104C224.419 192.917 235.843 207.85 238.758 211.483C238.8 211.56 238.856 211.56 238.795 211.452Z" fill="#263238"/>
<path d="M239.022 197.767C238.191 196.101 236.622 194.475 234.734 194.155C234.661 194.155 234.646 194.243 234.697 194.284C236.199 195.337 237.583 196.548 238.825 197.896C238.844 197.918 238.87 197.931 238.899 197.935C238.927 197.938 238.955 197.932 238.979 197.916C239.003 197.901 239.02 197.877 239.028 197.85C239.036 197.822 239.033 197.793 239.022 197.767Z" fill="#263238"/>
<path d="M239.182 199.305C238.351 197.633 236.777 196.013 234.894 195.693C234.821 195.693 234.806 195.786 234.852 195.822C236.353 196.875 237.737 198.086 238.98 199.434C238.989 199.447 239 199.459 239.013 199.468C239.025 199.477 239.04 199.483 239.055 199.486C239.071 199.49 239.087 199.49 239.102 199.487C239.117 199.484 239.132 199.479 239.145 199.47C239.159 199.462 239.17 199.451 239.179 199.438C239.188 199.425 239.194 199.41 239.198 199.395C239.201 199.38 239.201 199.364 239.199 199.348C239.196 199.333 239.19 199.318 239.182 199.305Z" fill="#263238"/>
<path d="M239.336 200.838C238.511 199.171 236.937 197.551 235.054 197.226C234.981 197.226 234.961 197.318 235.012 197.355C236.512 198.409 237.896 199.62 239.14 200.967C239.149 200.979 239.16 200.991 239.172 200.999C239.185 201.008 239.199 201.014 239.215 201.017C239.23 201.02 239.245 201.02 239.26 201.017C239.275 201.014 239.29 201.009 239.303 201C239.316 200.992 239.327 200.981 239.335 200.968C239.344 200.955 239.35 200.941 239.353 200.926C239.356 200.911 239.356 200.895 239.354 200.88C239.351 200.865 239.345 200.85 239.336 200.838Z" fill="#263238"/>
<path d="M249.073 157.447C248.077 162.365 227.68 181.978 227.68 181.978L241.901 198.392C241.901 198.392 270.859 169.496 269.347 158.624C268.031 149.176 253.867 111.183 253.867 111.183H237.572C237.572 111.183 250.048 152.612 249.073 157.447Z" fill="#37474F"/>
<path d="M249.073 157.447C248.077 162.365 227.68 181.978 227.68 181.978L241.901 198.392C241.901 198.392 270.859 169.496 269.347 158.624C268.031 149.176 253.867 111.183 253.867 111.183H237.572C237.572 111.183 250.048 152.612 249.073 157.447Z" fill="#37474F"/>
<path d="M243.516 194.491C241.627 192.138 242.205 192.788 240.291 190.456C239.352 189.315 233.186 181.828 232.123 180.915C232.123 180.915 232.061 180.915 232.076 180.956C232.788 182.158 239.083 189.537 240.043 190.662C242.004 192.953 241.467 192.277 243.449 194.548C243.49 194.589 243.552 194.532 243.516 194.491Z" fill="#263238"/>
<path d="M251.101 155.053C250.864 153.825 250.585 152.602 250.343 151.379C249.809 148.881 249.247 146.393 248.655 143.912C247.479 138.99 246.201 134.095 244.821 129.227C243.433 124.346 241.963 119.469 240.265 114.681C240.059 114.088 239.842 113.499 239.625 112.911C239.625 112.902 239.621 112.892 239.615 112.886C239.608 112.879 239.599 112.875 239.589 112.875C239.58 112.875 239.57 112.879 239.564 112.886C239.557 112.892 239.553 112.902 239.553 112.911C241.024 117.71 242.536 122.493 243.908 127.313C245.281 132.132 246.545 136.952 247.742 141.802C248.341 144.237 248.898 146.683 249.445 149.129C249.713 150.331 249.961 151.539 250.229 152.741C250.548 153.965 250.777 155.21 250.915 156.467C250.953 157.657 250.617 158.83 249.956 159.821C249.342 160.822 248.624 161.761 247.928 162.705C246.535 164.594 233.253 179.398 232.824 179.8C232.788 179.831 232.824 179.878 232.876 179.847C234.656 178.247 245.926 166.049 247.355 164.16C248.067 163.226 248.753 162.282 249.419 161.322C250.097 160.456 250.643 159.495 251.039 158.469C251.353 157.354 251.374 156.178 251.101 155.053Z" fill="#263238"/>
<path d="M251.065 111.183L248.103 150.063C245.275 136.756 237.572 111.183 237.572 111.183H251.065Z" fill="#263238"/>
<path d="M244.068 191.235C244.068 191.235 247.592 208.387 247.592 208.402C247.639 211.854 247.742 214.883 247.938 216.447C247.943 216.817 248.035 217.181 248.206 217.509C249.238 218.191 276.86 218.619 277.83 218.309C278.8 218 277.995 215.213 276.932 214.346C275.869 213.48 265.374 208.583 265.374 208.583L261.679 191.441L244.068 191.235Z" fill="#C95F50"/>
<path d="M277.856 218.356C276.891 218.665 249.269 218.237 248.232 217.556C248.064 217.226 247.972 216.863 247.964 216.493C247.961 216.483 247.961 216.472 247.964 216.462C247.763 214.914 247.665 211.88 247.613 208.423L247.004 205.435H264.708L265.4 208.645C265.4 208.645 275.9 213.541 276.968 214.413C278.036 215.285 278.831 218.051 277.856 218.356Z" fill="#EBEBEB"/>
<path d="M277.856 218.356C276.886 218.665 249.269 218.237 248.232 217.556C247.83 217.303 247.659 213.273 247.592 208.402V208.247L265.41 208.325V208.629C265.41 208.629 275.905 213.521 276.968 214.393C278.031 215.265 278.826 218.051 277.856 218.356Z" fill="#FF6C27"/>
<path d="M277.562 217.282C272.918 217.097 254.12 216.766 249.507 216.952C249.471 216.952 249.471 216.978 249.507 216.983C254.115 217.267 272.902 217.427 277.562 217.36C277.66 217.355 277.66 217.288 277.562 217.282Z" fill="#263238"/>
<path d="M266.896 208.707C265.069 208.335 262.825 208.583 261.4 209.868C261.349 209.914 261.4 209.991 261.478 209.976C263.238 209.439 265.051 209.093 266.886 208.944C266.901 208.945 266.917 208.942 266.931 208.937C266.946 208.931 266.959 208.923 266.971 208.913C266.982 208.902 266.992 208.89 266.998 208.875C267.005 208.861 267.009 208.846 267.009 208.83C267.01 208.815 267.008 208.799 267.002 208.785C266.997 208.77 266.989 208.756 266.978 208.745C266.968 208.733 266.955 208.724 266.941 208.718C266.927 208.711 266.911 208.707 266.896 208.707Z" fill="#263238"/>
<path d="M268.201 209.522C266.38 209.15 264.13 209.398 262.711 210.683C262.66 210.734 262.711 210.812 262.789 210.791C264.547 210.254 266.358 209.908 268.191 209.759C268.223 209.761 268.253 209.749 268.277 209.728C268.3 209.707 268.314 209.677 268.315 209.646C268.316 209.614 268.305 209.583 268.284 209.56C268.262 209.537 268.233 209.523 268.201 209.522Z" fill="#263238"/>
<path d="M269.512 210.342C267.685 209.971 265.441 210.218 264.022 211.498C263.965 211.55 264.022 211.627 264.099 211.612C265.858 211.077 267.669 210.731 269.502 210.58C269.517 210.58 269.533 210.578 269.547 210.573C269.562 210.567 269.576 210.559 269.587 210.548C269.599 210.538 269.608 210.525 269.614 210.511C269.621 210.497 269.625 210.482 269.626 210.466C269.626 210.451 269.624 210.435 269.618 210.42C269.613 210.406 269.605 210.392 269.594 210.381C269.584 210.369 269.571 210.36 269.557 210.353C269.543 210.347 269.528 210.343 269.512 210.342Z" fill="#263238"/>
<path d="M252.324 111.183C251.689 113.865 251.22 116.585 250.921 119.325C250.585 122.741 250.157 125.765 249.703 126.141C249.249 126.518 246.607 128.205 245.74 128.721C245.74 128.721 253.779 153.097 255.853 161.229C258.862 173.005 266.065 208.345 266.065 208.345H246.87C246.87 208.345 241.034 174.707 238.48 163.489C236.292 153.876 227.912 125.037 227.912 125.037C227.028 122.814 226.631 120.427 226.747 118.037C226.864 115.647 227.492 113.309 228.588 111.183C228.588 111.183 252.324 111.172 252.324 111.183Z" fill="#37474F"/>
<path d="M265.363 204.63C262.345 204.63 263.212 204.579 260.203 204.594C258.728 204.594 249.027 204.666 247.654 204.919C247.646 204.919 247.638 204.922 247.632 204.928C247.627 204.934 247.623 204.942 247.623 204.95C247.623 204.958 247.627 204.966 247.632 204.972C247.638 204.978 247.646 204.981 247.654 204.981C249.037 205.187 258.733 204.95 260.209 204.914C263.227 204.837 262.36 204.826 265.369 204.718C265.377 204.714 265.385 204.708 265.39 204.7C265.395 204.691 265.398 204.682 265.397 204.672C265.397 204.663 265.393 204.653 265.387 204.646C265.381 204.638 265.373 204.633 265.363 204.63Z" fill="#263238"/>
<path d="M251.05 125.176C249.185 126.202 247.414 127.389 245.755 128.721C245.745 128.732 245.739 128.747 245.738 128.762C245.737 128.776 245.741 128.791 245.749 128.804C245.757 128.816 245.77 128.826 245.784 128.83C245.798 128.835 245.813 128.835 245.828 128.83C247.623 127.705 249.44 126.611 251.189 125.388C251.21 125.367 251.224 125.339 251.227 125.31C251.23 125.28 251.223 125.25 251.206 125.225C251.19 125.2 251.165 125.181 251.137 125.172C251.108 125.164 251.077 125.165 251.05 125.176Z" fill="#263238"/>
<path d="M249.584 111.915C249.584 111.848 249.45 111.853 249.46 111.915C249.794 114.061 250.02 116.222 250.136 118.391C250.203 119.392 250.255 124.991 248.475 124.857C248.175 124.857 247.959 124.578 247.871 124.15C247.791 123.582 247.78 123.007 247.84 122.437C247.84 121.26 247.84 120.089 247.747 118.912C247.61 116.74 247.25 114.587 246.674 112.488C246.674 112.473 246.668 112.459 246.657 112.448C246.647 112.437 246.632 112.431 246.617 112.431C246.602 112.431 246.588 112.437 246.577 112.448C246.566 112.459 246.56 112.473 246.56 112.488C247.076 115.469 247.365 118.484 247.427 121.508C247.427 122.968 247.051 125.223 248.573 125.207C250.095 125.192 250.549 121.451 250.58 120.445C250.619 117.57 250.284 114.703 249.584 111.915Z" fill="#263238"/>
<path d="M248.542 125.011C248.447 125.404 248.378 125.802 248.335 126.203C248.279 126.521 248.279 126.846 248.335 127.163C248.34 127.175 248.349 127.186 248.36 127.193C248.371 127.2 248.384 127.204 248.397 127.204C248.411 127.204 248.423 127.2 248.434 127.193C248.446 127.186 248.454 127.175 248.459 127.163C248.597 126.856 248.685 126.528 248.717 126.193C248.795 125.821 248.877 125.455 248.944 125.078C248.953 125.025 248.94 124.97 248.909 124.926C248.878 124.882 248.83 124.853 248.777 124.844C248.723 124.835 248.668 124.847 248.624 124.879C248.58 124.91 248.551 124.958 248.542 125.011Z" fill="#263238"/>
<path d="M230.652 124.913C232.306 124.821 233.94 124.513 235.513 123.995C237.299 123.424 238.918 122.425 240.229 121.085C240.971 120.348 241.583 119.491 242.04 118.551C242.04 118.515 242.112 118.551 242.102 118.582C241.822 119.493 241.389 120.349 240.822 121.116C240.236 121.874 239.541 122.542 238.758 123.097C237.21 124.232 235.389 124.935 233.48 125.135C232.538 125.282 231.579 125.268 230.642 125.094C230.492 125.073 230.533 124.924 230.652 124.913Z" fill="#263238"/>
<path d="M244.625 194.052C244.579 193.608 244.517 193.165 244.455 192.721C244.336 191.875 244.192 191.023 244.058 190.177C243.8 188.469 243.506 186.766 243.201 185.069C242.603 181.678 241.906 178.299 241.173 174.934C240.755 173.035 240.275 171.157 239.765 169.258C239.734 169.124 239.548 169.191 239.568 169.315C239.878 171.039 240.177 172.757 240.528 174.475C240.879 176.193 241.23 177.886 241.56 179.594C242.231 182.968 242.855 186.359 243.526 189.733C243.712 190.688 243.887 191.642 244.073 192.597C244.166 193.072 244.259 193.552 244.362 194.021C244.465 194.491 244.61 194.96 244.687 195.435C244.687 195.481 244.765 195.461 244.759 195.435C244.687 194.976 244.682 194.532 244.625 194.052Z" fill="#263238"/>
<path d="M257.866 168.546C257.226 165.363 256.364 162.22 255.497 159.088C253.753 152.793 251.7 146.585 249.651 140.378C249.059 138.592 248.468 136.805 247.876 135.017C247.582 134.124 246.137 129.299 245.957 128.825C245.954 128.817 245.948 128.81 245.941 128.805C245.935 128.8 245.926 128.798 245.918 128.798C245.909 128.798 245.901 128.8 245.894 128.805C245.887 128.81 245.882 128.817 245.879 128.825C246.297 130.465 246.865 132.86 247.345 134.501C247.825 136.141 248.335 137.705 248.836 139.299C249.816 142.442 250.812 145.584 251.762 148.732C253.645 154.96 255.513 161.188 257.04 167.514C257.469 169.289 257.897 171.059 258.284 172.839C258.671 174.62 259.011 176.405 259.383 178.185C259.383 178.237 259.476 178.221 259.471 178.185C259.151 174.955 258.516 171.745 257.866 168.546Z" fill="#263238"/>
<path d="M245.931 185.208C244.873 179.135 243.609 173.092 242.205 167.086C240.802 161.08 239.228 155.053 237.499 149.103C235.771 143.154 233.856 137.235 231.823 131.405C230.788 128.654 229.918 125.843 229.218 122.989C228.583 120.151 228.263 117.08 228.923 114.217C229.085 113.49 229.304 112.777 229.579 112.086C229.579 112.039 229.527 111.998 229.507 112.044C227.2 117.426 228.696 123.309 230.456 128.613C231.416 131.518 232.443 134.403 233.397 137.313C234.352 140.223 235.301 143.298 236.199 146.312C237.969 152.282 239.615 158.288 241.086 164.336C242.556 170.383 243.872 176.472 245.028 182.592C246.184 188.712 247.159 194.898 248.15 201.065C248.279 201.87 248.377 202.675 248.485 203.479C248.485 203.526 248.557 203.526 248.552 203.479C247.788 197.365 246.983 191.276 245.931 185.208Z" fill="#263238"/>
<path d="M245.539 85.6973C247.799 93.9533 254.311 103.912 257.407 105.305C260.1 106.502 272.598 101.879 277.314 98.876C278.656 98.0194 273.109 90.2949 271.493 90.8315C266.215 92.5911 260.472 95.1917 260.028 95.0421C259.13 94.7376 253.526 87.8645 249.445 83.2412C244.868 78.045 244.641 82.4104 245.539 85.6973Z" fill="#C95F50"/>
<path d="M286.225 91.8738C287.288 91.4301 295.467 91.1721 295.467 89.397C295.467 87.622 285.054 88.1173 285.054 88.1173L286.225 91.8738Z" fill="#C95F50"/>
<path d="M270.539 92.0802C271.968 90.3052 273.227 88.3908 274.471 88.0399C275.327 87.7974 284.59 88.1947 286.034 88.107C287.479 88.0193 292.644 88.1535 292.742 89.4228C292.913 91.2133 286.803 91.1979 286.153 92.1163C283.898 95.2794 275.317 99.9595 275.317 99.9595L270.539 92.0802Z" fill="#C95F50"/>
<path d="M292.902 89.4486C292.808 89.1191 292.597 88.835 292.309 88.6488C291.633 88.2788 290.871 88.092 290.1 88.107C288.971 88.0056 287.836 87.9969 286.705 88.0812C286.705 88.0812 286.705 88.1173 286.705 88.1225C287.557 88.1225 288.398 88.1225 289.244 88.2154C290.02 88.2443 290.791 88.362 291.54 88.5663C291.876 88.6529 292.182 88.8316 292.422 89.0823C292.505 89.1766 292.563 89.2907 292.589 89.4136C292.615 89.5365 292.609 89.664 292.572 89.784C292.33 90.5632 290.787 90.816 290.075 90.9553C289.146 91.1617 288.181 91.3423 287.247 91.5333C287.206 91.5333 287.247 91.6055 287.247 91.5952C288.217 91.4043 289.239 91.332 290.214 91.1566C291.028 91.0771 291.809 90.7931 292.484 90.331C292.631 90.2394 292.749 90.1076 292.823 89.9512C292.897 89.7947 292.925 89.6203 292.902 89.4486Z" fill="#263238"/>
<path d="M270.183 90.9863L277.51 101.714C277.51 101.714 266.158 107.39 261.813 107.302C257.685 107.204 256.184 106.595 254.878 105.362C254.068 104.598 249.471 98.102 245.719 87.3021C242.572 78.2515 247.231 79.5621 251.395 84.5983C253.459 87.0957 260.085 94.5416 260.415 94.5158C260.745 94.49 270.183 90.9863 270.183 90.9863Z" fill="#FF6C27"/>
<path d="M267.928 92.7304C269.027 94.3197 270.08 95.9399 271.117 97.5705C271.633 98.3651 273.532 101.616 274.084 102.54C274.084 102.576 274.006 102.638 273.981 102.601C273.408 101.786 271.339 98.5405 270.838 97.7356C269.806 96.0895 268.831 94.4383 267.881 92.7613C267.879 92.7583 267.878 92.7549 267.877 92.7513C267.877 92.7477 267.877 92.744 267.877 92.7404C267.878 92.7368 267.879 92.7334 267.881 92.7303C267.884 92.7273 267.886 92.7247 267.889 92.7226C267.892 92.7206 267.896 92.7192 267.899 92.7185C267.903 92.7178 267.907 92.7178 267.91 92.7185C267.914 92.7192 267.917 92.7206 267.92 92.7227C267.923 92.7247 267.926 92.7273 267.928 92.7304Z" fill="#263238"/>
<path opacity="0.1" d="M264.011 107.029C263.292 107.206 262.554 107.297 261.813 107.302C257.685 107.204 256.184 106.595 254.878 105.362C254.073 104.598 249.471 98.1071 245.724 87.3021C245.136 85.8062 244.787 84.2266 244.692 82.6219C244.692 82.5239 244.692 82.4207 244.692 82.3278C244.687 82.2367 244.687 82.1454 244.692 82.0544C244.701 81.9798 244.713 81.9058 244.729 81.8325C244.781 81.4957 244.94 81.1846 245.183 80.9449C247.747 84.3815 259.77 100.62 264.011 107.029Z" fill="black"/>
<path d="M290.911 86.5848H263.129V88.0761H290.911V86.5848Z" fill="#C7C7C7"/>
<path d="M290.91 86.5848V88.0761H274.037L275.178 86.5848H290.91Z" fill="#A6A6A6"/>
<path d="M276.406 88.076H294.987L304.657 71.6569H286.076L276.406 88.076Z" fill="#C7C7C7"/>
<path d="M289.837 79.8562C289.492 80.6147 289.744 81.4042 290.405 81.6415C290.774 81.7269 291.162 81.6764 291.498 81.4992C291.833 81.3221 292.094 81.03 292.232 80.6766C292.577 79.9181 292.324 79.1286 291.664 78.8912C291.294 78.8069 290.907 78.8579 290.572 79.035C290.236 79.212 289.976 79.5034 289.837 79.8562Z" fill="white"/>
<path d="M226.798 116.838C226.865 116.91 255.884 116.704 256.148 116.404C256.509 115.981 249.636 84.6086 246.617 80.7541C245.972 79.9285 243.867 79.7221 242.081 79.9594C241.616 80.0172 241.157 80.1156 240.709 80.2535H240.662C240.3 80.3668 239.96 80.5413 239.656 80.7695C234.728 84.7892 230.688 98.7005 229.754 102.875C228.206 109.758 226.555 116.564 226.798 116.838Z" fill="#EBEBEB"/>
<path d="M240.353 80.3257C240.353 80.3257 242.247 93.2257 242.695 96.5901C243.144 99.9544 242.695 117.617 242.695 117.617L224.486 119.165C224.486 119.165 228.304 107.421 228.34 106.678C228.34 106.678 231.359 92.5653 234.476 86.7396C235.868 84.144 237.888 81.9388 240.353 80.3257Z" fill="#FF6C27"/>
<path d="M246.416 80.5528C246.416 80.5528 248.877 93.6179 249.094 94.6964C249.311 95.7748 252.463 117.008 252.463 117.008L257.02 117.106L254.548 107.405C254.548 107.405 249.259 82.56 246.416 80.5528Z" fill="#FF6C27"/>
<path d="M245.389 84.7272C244.006 84.8872 241.385 82.9625 240.652 80.9243C240.606 80.7798 241.019 79.4537 241.442 77.8283C241.694 76.8324 241.958 75.723 242.118 74.691C242.149 74.4795 248.341 77.271 248.341 77.271C247.766 78.5013 247.345 79.7976 247.087 81.1307C247.074 81.2749 247.074 81.4199 247.087 81.5641V81.6364C247.066 82.4671 246.875 84.5621 245.389 84.7272Z" fill="#C95F50"/>
<path d="M247.066 81.5745C247.068 81.5985 247.068 81.6227 247.066 81.6467C246.843 81.6387 246.62 81.6145 246.4 81.5745C242.608 80.8882 242.355 75.9604 242.35 74.722C243.475 75.0677 248.346 77.302 248.346 77.302C247.771 78.5342 247.35 79.8322 247.092 81.1668C247.074 81.302 247.065 81.4382 247.066 81.5745Z" fill="#263238"/>
<path d="M242.19 66.4608C241.194 68.6796 241.576 75.4908 243.026 77.1782C245.131 79.6292 248.996 80.3258 251.184 77.6942C253.304 75.1503 252.654 66.2802 250.993 64.7013C248.547 62.3793 243.655 63.1894 242.19 66.4608Z" fill="#C95F50"/>
<path d="M247.205 71.2854C247.205 71.2854 247.169 71.2854 247.174 71.3267C247.21 71.7859 247.174 72.3122 246.772 72.4877C246.772 72.4877 246.772 72.5186 246.772 72.5135C247.278 72.4154 247.314 71.724 247.205 71.2854Z" fill="#263238"/>
<path d="M246.772 70.8262C246.034 70.8262 246.049 72.2916 246.736 72.3071C247.422 72.3226 247.391 70.8417 246.772 70.8262Z" fill="#263238"/>
<path d="M250.033 71.2596C250.033 71.2596 250.069 71.2854 250.069 71.3009C250.069 71.7602 250.126 72.2916 250.544 72.4361C250.544 72.4361 250.544 72.4671 250.544 72.4619C250.033 72.4 249.95 71.724 250.033 71.2596Z" fill="#263238"/>
<path d="M250.435 70.7797C251.173 70.7127 251.251 72.1936 250.564 72.2555C249.878 72.3174 249.816 70.8313 250.435 70.7797Z" fill="#263238"/>
<path d="M246.178 70.176C246.38 70.1192 246.555 70.0367 246.751 69.9644C246.963 69.92 247.154 69.8055 247.293 69.6394C247.327 69.5795 247.34 69.5104 247.331 69.4424C247.321 69.3744 247.29 69.3113 247.241 69.2627C247.128 69.1816 246.995 69.1322 246.856 69.1195C246.718 69.1068 246.578 69.1313 246.452 69.1904C246.178 69.2751 245.946 69.4592 245.802 69.7064C245.775 69.7632 245.765 69.8263 245.773 69.8885C245.78 69.9507 245.805 70.0096 245.844 70.0585C245.883 70.1074 245.935 70.1443 245.994 70.1651C246.054 70.1858 246.117 70.1896 246.178 70.176Z" fill="#263238"/>
<path d="M251.003 69.531C250.803 69.4932 250.605 69.445 250.41 69.3865C250.195 69.3628 249.995 69.2705 249.837 69.1234C249.795 69.0677 249.772 68.9998 249.772 68.9299C249.772 68.86 249.795 68.792 249.837 68.7364C249.941 68.6449 250.067 68.5825 250.203 68.5553C250.339 68.5281 250.48 68.5372 250.611 68.5816C250.889 68.6335 251.139 68.7859 251.313 69.0099C251.348 69.0625 251.368 69.1242 251.37 69.1877C251.371 69.2511 251.355 69.3138 251.323 69.3684C251.29 69.423 251.243 69.4672 251.187 69.496C251.13 69.5248 251.066 69.537 251.003 69.531Z" fill="#263238"/>
<path d="M247.056 75.5321C247.164 75.6405 247.278 75.785 247.443 75.8005C247.622 75.7978 247.798 75.7555 247.959 75.6766C247.959 75.6766 247.984 75.6766 247.959 75.7024C247.893 75.7929 247.804 75.8641 247.702 75.9086C247.599 75.953 247.487 75.9692 247.376 75.9553C247.282 75.9328 247.197 75.8831 247.132 75.8123C247.067 75.7416 247.024 75.653 247.009 75.5579C247.004 75.527 247.035 75.5167 247.056 75.5321Z" fill="#263238"/>
<path d="M247.52 74.1544C247.636 74.3327 247.788 74.4853 247.965 74.6025C248.143 74.7196 248.342 74.799 248.552 74.8355C248.738 74.8638 248.928 74.8638 249.114 74.8355C249.15 74.8409 249.187 74.8409 249.223 74.8355H249.321C249.346 74.831 249.368 74.8184 249.385 74.7997C249.402 74.7811 249.412 74.7573 249.414 74.7323C249.416 74.7169 249.416 74.7012 249.414 74.6859V74.6446C249.414 74.2885 249.378 73.7519 249.378 73.7519C249.507 73.8138 250.172 74.1028 250.157 73.917C250.096 72.3233 249.875 70.7398 249.496 69.1905C249.496 69.1795 249.492 69.169 249.484 69.1613C249.477 69.1535 249.466 69.1492 249.455 69.1492C249.444 69.1492 249.434 69.1535 249.426 69.1613C249.418 69.169 249.414 69.1795 249.414 69.1905C249.46 70.6611 249.765 72.1162 249.837 73.5971C249.601 73.4906 249.35 73.4176 249.094 73.3804C249.042 73.3804 249.192 74.4124 249.176 74.5775C248.887 74.6108 248.594 74.5855 248.315 74.503C248.036 74.4206 247.776 74.2827 247.551 74.0976C247.53 74.0873 247.494 74.1183 247.52 74.1544Z" fill="#263238"/>
<path d="M248.924 74.6807C248.732 74.9334 248.48 75.1338 248.191 75.2638C248.027 75.3287 247.846 75.3413 247.675 75.2999C247.308 75.207 247.298 74.8716 247.36 74.5827C247.396 74.4289 247.449 74.28 247.52 74.1389C247.918 74.4644 248.41 74.6542 248.924 74.6807Z" fill="#263238"/>
<path d="M248.196 75.2638C248.032 75.3287 247.852 75.3413 247.68 75.2999C247.314 75.207 247.303 74.8716 247.365 74.5826C247.56 74.5871 247.747 74.6567 247.898 74.7801C248.049 74.9035 248.153 75.0738 248.196 75.2638Z" fill="#FF9BBC"/>
<path d="M241.622 72.3484C241.622 72.3484 239.976 68.2617 240.539 66.1564C240.791 65.2018 242.221 64.7632 242.221 64.7632C242.182 64.3527 242.258 63.9396 242.44 63.5697C242.623 63.1999 242.904 62.8878 243.253 62.6682C244.579 61.7704 247.324 62.467 247.324 62.467C247.324 62.467 249.553 60.1553 251.937 61.6052C254.321 63.0552 252.185 65.6765 252.185 65.6765C252.185 65.6765 252.907 67.1574 250.446 67.823C247.984 68.4887 243.666 66.7343 243.666 66.7343C243.62 68.336 243.337 69.922 242.825 71.4402C242.726 71.6866 242.561 71.9013 242.35 72.0613C242.138 72.2213 241.886 72.3206 241.622 72.3484Z" fill="#263238"/>
<path d="M247.778 62.565C247.245 62.2419 246.651 62.0295 246.034 61.9406C245.486 61.8504 244.926 61.8504 244.378 61.9406C243.888 61.9984 243.423 62.1877 243.033 62.4885C242.642 62.7892 242.34 63.1901 242.159 63.6486C242.081 63.8899 242.052 64.1444 242.074 64.397C242.096 64.6496 242.169 64.8952 242.288 65.1192C242.288 65.1192 242.324 65.1192 242.314 65.1192C241.844 64.2884 242.314 63.2048 243.046 62.694C243.9 62.1671 244.916 61.969 245.905 62.1367C246.539 62.2331 247.16 62.4064 247.752 62.6527C247.758 62.6544 247.764 62.655 247.77 62.6543C247.776 62.6537 247.782 62.6519 247.787 62.649C247.792 62.6461 247.797 62.6422 247.801 62.6376C247.805 62.6329 247.807 62.6275 247.809 62.6218C247.811 62.616 247.811 62.61 247.811 62.604C247.81 62.598 247.808 62.5922 247.805 62.587C247.802 62.5817 247.799 62.577 247.794 62.5733C247.789 62.5695 247.784 62.5667 247.778 62.565Z" fill="#263238"/>
<path d="M253.578 63.1223C253.516 62.7645 253.367 62.4276 253.142 62.142C252.918 61.8564 252.626 61.6312 252.293 61.4866C251.541 61.1127 250.685 61.0036 249.863 61.177C249.036 61.3534 248.272 61.747 247.649 62.3173C247.649 62.3535 247.649 62.3173 247.649 62.3173C248.208 61.8162 248.892 61.475 249.628 61.3297C250.364 61.1844 251.126 61.2404 251.834 61.4917C252.163 61.5803 252.465 61.7491 252.714 61.983C252.962 62.2169 253.148 62.5087 253.256 62.8323C253.364 63.1558 253.39 63.5011 253.332 63.8371C253.273 64.1732 253.133 64.4896 252.923 64.758C252.428 65.3876 251.767 65.8651 251.013 66.1357C251.013 66.1357 251.013 66.1719 251.013 66.1615C251.719 65.9482 252.359 65.5615 252.876 65.0367C253.122 64.7857 253.312 64.4851 253.433 64.155C253.554 63.825 253.603 63.4729 253.578 63.1223Z" fill="#263238"/>
<path d="M243.18 72.1729C243.18 72.1729 241.901 69.8561 240.864 70.2947C239.826 70.7333 240.631 73.9738 241.736 74.5259C241.873 74.6056 242.025 74.6569 242.182 74.6767C242.34 74.6965 242.499 74.6843 242.652 74.641C242.805 74.5976 242.947 74.524 243.071 74.4244C243.194 74.3249 243.297 74.2014 243.371 74.0615L243.18 72.1729Z" fill="#C95F50"/>
<path d="M241.117 71.208C241.117 71.208 241.117 71.208 241.117 71.239C241.467 71.4611 241.767 71.7547 241.996 72.1006C242.226 72.4465 242.379 72.8368 242.448 73.2462C242.409 73.1611 242.353 73.0853 242.282 73.0239C242.212 72.9625 242.129 72.9171 242.039 72.8907C241.95 72.8642 241.856 72.8574 241.763 72.8707C241.671 72.8839 241.582 72.917 241.504 72.9676C241.504 72.9676 241.504 73.0192 241.504 73.014C241.651 72.9837 241.803 72.9997 241.941 73.0598C242.079 73.1198 242.194 73.221 242.272 73.3494C242.396 73.5664 242.5 73.7944 242.582 74.0305C242.613 74.1079 242.747 74.0821 242.726 73.9944C242.855 72.9624 242.21 71.4402 241.117 71.208Z" fill="#263238"/>
<path d="M236.694 83.2979C229.388 91.5023 223.892 103.056 223.944 105.78C224.016 108.773 227.824 119.315 231.452 124.268C231.921 124.903 234.749 124.635 237.128 123.319C239.651 121.931 241.72 119.454 241.225 118.716C239.362 115.945 234.95 105.212 234.992 103.535C235.028 101.987 238.645 92.4827 240.023 86.9873C241.369 81.6983 240.095 79.464 236.694 83.2979Z" fill="#C95F50"/>
<path d="M227.04 123.448L240.647 116.802C240.647 116.802 235.296 104.862 235.296 103.572C235.296 102.282 238.815 92.1886 240.141 87.5239C241.467 82.8593 240.957 77.6167 235.146 84.6705C229.336 91.7242 224.259 102.214 223.681 105.001C223.103 107.787 227.04 123.448 227.04 123.448Z" fill="#FF6C27"/>
<path d="M235.977 100.145C236.256 99.2612 236.545 98.3789 236.844 97.4982C237.179 96.5127 237.525 95.5323 237.876 94.557C238.227 93.5818 238.624 92.6736 239.006 91.7345C239.006 91.6674 239.151 91.7345 239.13 91.7809C238.676 93.0348 238.253 94.3042 237.83 95.5735C238.149 94.9956 238.469 94.4229 238.81 93.8553C238.817 93.8487 238.826 93.8445 238.836 93.8433C238.845 93.8421 238.855 93.8439 238.863 93.8484C238.872 93.8529 238.879 93.86 238.883 93.8686C238.887 93.8773 238.889 93.887 238.887 93.8965C238.506 94.5983 238.103 95.2846 237.695 95.9605C237.597 96.265 237.494 96.5746 237.391 96.879C236.818 98.5818 236.271 100.295 235.781 102.039C235.659 102.425 235.578 102.823 235.539 103.226C235.518 103.685 235.586 104.144 235.74 104.578C235.987 105.378 236.256 106.167 236.545 106.951C237.112 108.535 237.732 110.094 238.377 111.642C239.114 113.407 239.955 115.145 240.791 116.864C240.791 116.864 240.275 116.998 240.275 117.008C240.275 117.019 240.234 117.008 240.244 116.982C240.255 116.957 240.564 116.812 240.575 116.812C239.723 115.326 238.913 113.866 238.196 112.302C237.479 110.739 236.854 109.206 236.282 107.586C235.987 106.76 235.704 105.935 235.446 105.099C235.153 104.324 235.073 103.485 235.213 102.669C235.404 101.812 235.714 100.976 235.977 100.145Z" fill="#263238"/>
<path d="M226.808 119.614C227.29 119.353 227.786 119.119 228.294 118.912C228.738 118.706 229.176 118.494 229.625 118.293C230.595 117.854 231.565 117.411 232.541 116.977C233.516 116.544 234.486 116.105 235.461 115.682C236.436 115.259 237.396 114.805 238.387 114.438C238.423 114.438 238.449 114.48 238.418 114.5C237.515 115.058 236.55 115.532 235.6 115.992C234.651 116.451 233.717 116.895 232.762 117.323C231.808 117.751 230.807 118.169 229.821 118.566C229.347 118.757 228.867 118.933 228.382 119.113C227.878 119.331 227.361 119.515 226.834 119.666C226.827 119.666 226.821 119.665 226.816 119.662C226.81 119.659 226.806 119.654 226.803 119.649C226.8 119.643 226.799 119.637 226.8 119.631C226.801 119.624 226.804 119.619 226.808 119.614Z" fill="#263238"/>
</svg>
